<svg width="102" height="83" viewBox="0 0 102 83" fill="none" xmlns="http://www.w3.org/2000/svg">
<path d="M77.6318 0.0380602C77.6318 0.0703583 77.7865 0.247998 77.9657 0.417562C78.6089 1.03123 79.9687 2.61383 81.8822 4.97966C82.9407 6.28773 84.2353 7.82996 84.7727 8.41132C85.7742 9.49331 87.4108 10.9225 88.3879 11.5604C89.1533 12.061 89.194 12.0691 89.194 11.7945C89.194 11.4716 88.6648 9.33989 88.4124 8.65356C87.2236 5.38338 84.96 2.83991 81.8415 1.28961C80.8399 0.797064 79.6186 0.369115 78.6496 0.183401C78.2914 0.110731 77.9168 0.0380602 77.8191 0.0138369C77.7133 -0.0103865 77.6318 -0.00231171 77.6318 0.0380602Z" fill="#007FFF"/>
<path d="M22.3801 0.272697C20.248 1.22073 18.2812 2.37666 16.8846 3.49101C16.1491 4.08145 14.926 5.34548 14.3641 6.10224C13.9013 6.73426 13.0749 8.27273 12.7195 9.17918C12.3807 10.0524 11.9014 12.3642 11.984 12.7468C12.0006 12.8632 12.1328 12.805 12.6451 12.4474C15.5789 10.41 18.339 7.3746 21.281 2.92552C22.4214 1.20409 23.1239 0.0980616 23.1239 0.0398493C23.1239 -0.0433111 23.0082 -0.0100479 22.3801 0.272697Z" fill="#007FFF"/>
<path d="M47.5476 1.69558C40.9757 2.23686 34.7991 4.59062 29.7178 8.47801C25.3695 11.8077 21.8529 16.1708 19.6046 21.0341C17.9575 24.5935 17.0187 28.0626 16.6152 32.1058C16.4669 33.5574 16.4916 37.0183 16.6563 38.5274C17.6528 47.6964 22.0588 55.6926 29.2648 61.417C33.3414 64.6565 38.1839 66.9119 43.3887 67.9862C44.6569 68.2487 47.4735 68.6177 47.5558 68.5357C47.5888 68.5111 47.4488 68.2077 47.2511 67.8714C46.8888 67.2563 46.8888 67.2563 46.477 67.2071C41.8898 66.6412 37.7556 65.2798 33.9508 63.0983C32.139 62.0649 29.7919 60.3427 28.3178 58.9731L27.7001 58.4072L29.1248 56.972L30.5578 55.5449L30.3766 54.9381C30.2778 54.6018 30.179 54.2984 30.1543 54.2574C30.1296 54.2246 29.3637 54.9381 28.4413 55.8484L26.7777 57.4968L26.333 57.0212C24.8342 55.4055 23.3765 53.4618 22.2729 51.6001C19.6046 47.0895 18.0646 42.0375 17.8093 36.9199L17.7516 35.8374H20.7988H23.8459L23.8953 36.9199C24.0765 40.6925 25.3695 44.9161 27.3954 48.3853C27.9472 49.3366 29.1743 51.1163 29.2072 51.0179C29.2237 50.9769 28.9931 50.1157 28.6966 49.0988C28.2931 47.6882 28.046 46.9993 27.6754 46.2365C26.9754 44.8013 26.9013 44.6127 26.473 43.3907C25.8059 41.4716 25.4601 39.9298 25.1883 37.6006C25.0483 36.4032 24.9495 35.944 24.4965 34.4021C24.2 33.4098 23.953 32.6307 23.9447 32.6799C23.9365 32.7209 23.9118 33.1638 23.8788 33.664L23.8294 34.5662L20.7905 34.5908L17.7516 34.6072L17.8011 33.4016C18.0317 28.12 19.7611 22.6662 22.66 18.0325C23.6153 16.4988 24.9989 14.6864 26.1271 13.489L26.7366 12.8329L28.886 14.957L31.0272 17.0893L30.6813 17.4912C29.0837 19.3447 28.2848 20.4272 27.4366 21.887C26.8766 22.8466 26.0942 24.3966 26.0942 24.5442C26.0942 24.6017 26.2918 24.8477 26.5389 25.0855L26.9836 25.5284L27.5107 24.4294C28.1283 23.1418 28.6801 22.1905 29.5284 20.9521C30.1049 20.1156 31.5131 18.3769 31.8178 18.1227C31.9331 18.0243 32.1967 18.2539 33.9673 20.0172L35.9768 22.0183L35.6556 22.3463C34.0579 24.0112 32.4273 26.8734 31.6531 29.383L31.4225 30.1129L31.9084 30.5968C32.172 30.8592 32.4108 31.0806 32.4355 31.0806C32.4602 31.0806 32.5673 30.7608 32.6743 30.3589C33.3249 27.9724 34.7003 25.3726 36.3062 23.5027L36.8415 22.8794L38.7109 24.7411C40.3333 26.3567 40.5721 26.6274 40.4816 26.7422C40.4321 26.816 40.1768 27.1522 39.9133 27.4803C38.5874 29.2108 37.6733 31.4579 37.4344 33.623L37.3274 34.5662L36.5944 34.5908L35.8615 34.6154L36.4709 35.2223C36.8085 35.5585 37.1462 35.8374 37.2285 35.8374C37.3191 35.8374 37.3768 35.8948 37.3768 35.9932C37.3768 36.1408 38.7603 37.6908 38.8262 37.6252C38.8427 37.6088 38.818 37.453 38.7768 37.2726C38.7356 37.0921 38.678 36.6985 38.6533 36.3868L38.5956 35.8374H39.1721H39.7486L39.8804 35.3043C39.9545 35.0172 40.0121 34.7384 40.0121 34.6892C40.0121 34.64 39.7404 34.6072 39.3039 34.6072H38.5874L38.645 34.0249C38.8427 31.8598 39.8557 29.4322 41.2392 27.8001C41.4451 27.5541 41.4945 27.5377 41.6098 27.6279C41.6839 27.6935 41.7581 27.7263 41.7745 27.7099C41.791 27.6935 41.9392 27.1194 42.1039 26.4469C42.2687 25.7662 42.4334 25.1429 42.4581 25.0609C42.5075 24.8805 42.5404 24.8641 41.791 25.4546L41.4863 25.6924L39.6333 23.8553C38.6203 22.8466 37.7886 21.9937 37.7886 21.9691C37.7886 21.8624 39.3451 20.6323 40.1686 20.0828C41.1157 19.4513 42.6063 18.6804 43.5534 18.3195C43.891 18.1965 44.1958 18.0571 44.2205 18.0243C44.2946 17.9176 44.5664 16.7203 44.5252 16.6793C44.4593 16.6218 42.7545 17.2779 41.8404 17.7126C40.2263 18.4835 38.4968 19.6235 37.3521 20.6651L36.8744 21.0997L34.8567 19.0986L32.839 17.0975L33.3579 16.6136C36.4544 13.735 40.8192 11.5371 45.2334 10.6349L46.1393 10.4545L46.2876 9.84761C46.3782 9.51957 46.4276 9.22432 46.4029 9.20792C46.337 9.14231 45.2417 9.33914 43.9899 9.64259C39.7074 10.6759 35.9356 12.6606 32.4931 15.6951L31.9331 16.1872L29.8001 14.0631L27.6589 11.9389L27.9307 11.6601C28.3507 11.2172 29.7754 10.0116 30.6731 9.33914C35.5897 5.63218 41.511 3.41784 47.7535 2.93397C48.0088 2.90936 48.0417 2.87656 48.1323 2.58131C48.1817 2.40089 48.2476 2.11385 48.2806 1.94162C48.3464 1.60537 48.3958 1.62177 47.5476 1.69558Z" fill="#007FFF"/>
<path d="M51.6733 1.88951C51.7059 2.02065 51.7875 2.30754 51.8609 2.53705C51.9914 2.94688 51.9914 2.94688 52.3584 2.97147C52.5622 2.97967 53.2391 3.04524 53.8671 3.11901C59.6004 3.75016 65.4805 6.21736 70.0149 9.88127C71.1567 10.8075 72.2087 11.7501 72.2414 11.8731C72.2495 11.9222 71.3279 12.8977 70.1862 14.0452L68.1147 16.1271L66.9892 15.1599C63.8412 12.4878 60.0326 10.5534 56.1099 9.63538C54.7561 9.3239 53.5817 9.13538 53.5817 9.23374C53.5817 9.43046 53.8671 10.4141 53.9324 10.4632C53.9813 10.4878 54.2178 10.537 54.4625 10.5698C55.2128 10.66 57.0559 11.1518 58.2303 11.5616C60.0163 12.1845 61.8187 13.0452 63.3274 13.996C64.249 14.578 65.9943 15.9058 66.6549 16.5288L67.2094 17.0452L65.2195 19.0452L63.2214 21.037L62.5771 20.4796C61.1907 19.2747 59.5515 18.2419 57.7654 17.455C56.9417 17.0944 55.5227 16.578 55.4737 16.6271C55.4656 16.6435 55.5308 16.9632 55.6205 17.3403L55.7918 18.0288L56.4442 18.2583C58.2384 18.8976 60.3915 20.2009 62.0633 21.6599L62.3488 21.914L60.4812 23.7992L58.6136 25.6845L58.2384 25.3484C57.7899 24.955 57.5778 24.832 57.5778 24.955C57.5778 25.0779 58.2384 27.6927 58.2792 27.7336C58.2955 27.75 58.3852 27.7009 58.4749 27.6189C58.6381 27.4714 58.6462 27.4714 58.8827 27.75C59.6738 28.6763 60.5546 30.2418 60.9624 31.4631C61.1989 32.1762 61.4517 33.3402 61.5332 34.1107L61.5822 34.6271H60.7993C60.3752 34.6271 60.0245 34.6516 60.0245 34.6844C60.0326 34.7254 60.0979 34.9877 60.1713 35.2828L60.3099 35.8156L60.9461 35.8402C61.2886 35.8566 61.574 35.8893 61.574 35.9221C61.574 35.9549 61.5169 36.3484 61.4517 36.791C61.3864 37.2418 61.3457 37.6188 61.362 37.6352C61.3783 37.6516 61.7045 37.3402 62.096 36.9467C62.5445 36.4795 62.7973 36.1598 62.7973 36.0369C62.7973 35.9057 62.8463 35.8566 62.9849 35.8566C63.1072 35.8566 63.3764 35.6516 63.776 35.2418L64.3795 34.6271H63.6047H62.8218L62.7321 33.7418C62.463 31.2828 61.4598 28.914 59.8777 27.0205L59.5107 26.5779L61.3864 24.6927L63.2622 22.8074L63.8739 23.5451C65.4805 25.4714 66.818 28.0041 67.4378 30.3238C67.5357 30.6845 67.6335 31.0369 67.658 31.1025C67.6906 31.1926 67.8456 31.0697 68.1799 30.6926C68.4491 30.3976 68.6693 30.1353 68.6693 30.1025C68.6774 29.914 68.0984 28.291 67.6906 27.3648C66.9566 25.6599 65.717 23.7009 64.6079 22.4878C64.3713 22.2337 64.1838 21.9878 64.1838 21.955C64.1838 21.914 65.0646 20.996 66.1411 19.914L68.0902 17.955L68.3104 18.1517C68.6448 18.4714 69.8926 20.0042 70.439 20.7747C71.173 21.8156 71.8907 23.0451 72.5431 24.3976L73.1221 25.6107L73.5952 25.1271L74.0682 24.6517L73.5299 23.5697C72.4616 21.4304 71.3606 19.7583 69.86 18.0206L69.0118 17.0288L71.1077 14.9222L73.2119 12.8075L73.6604 13.2911C75.528 15.2665 77.6158 18.2993 78.831 20.7911C78.9615 21.0533 79.1246 21.2911 79.2061 21.3156C79.3121 21.3484 79.3366 21.414 79.3121 21.537C79.2795 21.6517 79.4182 22.0779 79.6873 22.7009C81.0574 25.9222 81.9545 29.8894 82.1013 33.373L82.1502 34.6271H79.2143H76.2702L76.2212 34.4385C76.1968 34.3402 76.1723 33.9467 76.1723 33.5615C76.1723 33.1844 76.1397 32.9058 76.107 32.9467C75.9602 33.1189 74.949 36.9221 74.8674 37.6188C74.4841 40.9549 73.6767 43.75 72.3555 46.4057C72.225 46.668 71.8907 47.6762 71.6215 48.6434C71.3443 49.6106 71.0833 50.5286 71.0425 50.6762C70.9283 51.0696 71.0343 50.9548 71.6705 50.0204C74.3373 46.0532 75.9032 41.4877 76.156 36.9631L76.2131 35.8975L79.1816 35.873L82.1502 35.8566L82.1013 37.0205C81.8322 43.1434 79.4997 49.5286 75.6993 54.5778C74.7777 55.8073 73.3016 57.4958 73.1548 57.4958C73.1221 57.4958 72.4126 56.7991 71.5645 55.9384L70.0231 54.3893L69.811 54.9794C69.6153 55.5286 68.5796 57.2007 67.7069 58.3564L67.4052 58.7581L67.9679 58.4466C68.2778 58.2745 68.6366 58.0696 68.759 57.9958C68.9466 57.8892 69.02 57.7335 69.2402 56.922C69.3869 56.4056 69.5337 55.9302 69.5582 55.881C69.5908 55.8155 70.0965 56.2663 70.9446 57.1187L72.274 58.4548L71.5481 59.1187C67.7314 62.6351 62.6424 65.3236 57.4555 66.5531C56.4769 66.7826 54.5032 67.1269 53.6551 67.2089L53.125 67.2662L52.7498 67.8892L52.3747 68.5203L52.6438 68.5449C53.0271 68.5777 55.3677 68.2744 56.5992 68.0203C67.5438 65.8154 76.6779 58.2499 80.9269 47.8647C85.7305 36.1189 83.4551 22.5206 75.1039 13.0288C69.2157 6.33211 61.2396 2.36492 52.3747 1.70918L51.6162 1.6518L51.6733 1.88951Z" fill="#007FFF"/>
<path d="M47.0514 12.6962C45.5371 18.7899 42.8769 29.4477 41.1416 36.3884C39.4063 43.3209 37.9902 49.0528 37.9902 49.1186C37.9902 49.1926 38.9397 50.862 40.0939 52.8356C41.248 54.8093 42.4267 56.8076 42.6968 57.2846C43.4989 58.6579 47.5588 65.5822 47.8535 66.0838C48.0009 66.3306 48.5002 67.1776 48.9585 67.9506C49.4169 68.7318 49.818 69.3733 49.8425 69.3733C49.8753 69.3733 50.039 69.143 50.2027 68.8552C50.3664 68.5756 53.0839 64.0197 56.2353 58.7319C59.3866 53.4442 61.9568 49.1021 61.9404 49.0692C61.9077 49.0199 61.5557 47.6383 60.2133 42.3587C59.9105 41.1828 59.5094 39.5874 59.3129 38.8226C59.1165 38.0496 58.7154 36.4624 58.4126 35.2864C58.1179 34.1105 57.6922 32.4411 57.4712 31.5858C57.2502 30.7223 56.8492 29.1352 56.5709 28.0497C55.8424 25.1714 55.0648 22.1205 54.5655 20.155C54.3199 19.2011 53.9025 17.5399 53.6242 16.4544C53.3459 15.3689 52.9284 13.6995 52.6828 12.7538C52.4373 11.7998 51.9462 9.84261 51.5778 8.39526C50.1045 2.60584 49.8671 1.67657 49.8425 1.6519C49.8262 1.63546 48.5738 6.61073 47.0514 12.6962Z" fill="#007FFF"/>
<path d="M87.4892 4.55057C87.4892 4.57524 87.7114 4.94532 87.9912 5.38119C89.0201 7.01774 89.8514 9.0326 90.4358 11.3188C90.9708 13.383 91.1765 14.3452 91.3165 15.3486C91.3905 15.8667 91.4811 16.3765 91.5222 16.4752C91.6457 16.7713 91.4811 16.6973 91.2589 16.3519C90.979 15.9324 89.802 14.7564 89.053 14.1479C88.7155 13.8765 87.7855 13.1774 86.9953 12.6018C84.3944 10.7185 83.4643 9.94545 82.5672 8.90101C82.3778 8.67897 82.205 8.51449 82.1803 8.53094C82.1227 8.58851 82.4355 10.0195 82.633 10.6445C82.9293 11.5409 83.5795 12.7909 84.1475 13.5393C85.1105 14.814 86.3039 15.916 88.7649 17.7746C90.4687 19.0658 91.4317 19.8635 92.1231 20.5625C92.7404 21.1793 93.5306 22.1579 93.7445 22.5774C93.8022 22.6925 93.868 22.7418 93.9174 22.6925C94.1232 22.4869 94.2302 16.689 94.0738 14.6248C93.9092 12.4702 93.2919 10.1757 92.4935 8.68719C91.4235 6.71346 89.8102 5.30717 87.8019 4.62459C87.6291 4.5588 87.4892 4.5259 87.4892 4.55057Z" fill="#007FFF"/>
<path d="M12.4667 5.20008C11.2598 5.77661 9.95635 6.95439 9.18392 8.1651C8.21035 9.71351 7.52643 11.9043 7.16436 14.6717C7.04367 15.6024 7.01953 16.3766 7.01953 19.424C7.01953 21.4254 7.04367 23.0891 7.07585 23.122C7.10804 23.155 7.42988 22.8585 7.78391 22.4714C8.49196 21.6972 9.67473 20.6182 11.0023 19.531C14.1242 16.9696 15.484 15.6765 16.5058 14.2681C17.5921 12.7774 18.3484 10.9407 18.5254 9.35935L18.5817 8.86518L18.0748 9.44171C17.0127 10.6524 15.8219 11.7231 13.2874 13.7492C11.2276 15.3882 10.8012 15.7589 9.90002 16.6731C9.5299 17.0355 9.2322 17.299 9.2322 17.2414C9.2322 17.1425 9.3368 16.7307 10.0046 14.2187C11.115 10.0512 12.1046 7.07793 12.9012 5.52953C13.0299 5.28244 13.1426 5.05183 13.1587 5.01065C13.215 4.89534 12.9736 4.96123 12.4667 5.20008Z" fill="#007FFF"/>
<path d="M94.8639 11.6786C94.8479 11.736 94.9359 12.0395 95.0799 12.3513C95.4239 13.1307 95.6159 13.9758 95.7519 15.2638C95.944 17.0606 95.88 19.1445 95.5199 23.5174C95.4559 24.2804 95.3759 25.429 95.3439 26.0689C95.3199 26.7171 95.2639 27.2422 95.2239 27.2422C95.1839 27.2422 95.1519 27.1847 95.1519 27.1109C95.1519 26.8894 94.7439 25.9131 94.4159 25.3552C93.7199 24.1737 92.7119 23.0908 90.8319 21.4991C89.2399 20.1454 88.7999 19.6942 88.3679 18.9312C88.1599 18.562 87.8559 18.1272 87.6799 17.9549C87.3759 17.6513 86.8559 17.4216 86.7359 17.5446C86.6959 17.5857 86.7199 17.7744 86.7839 17.9795C86.8479 18.1764 87.0159 18.7097 87.1519 19.1609C87.5759 20.5146 88.4319 22.3934 89.1919 23.6323C89.7359 24.5265 90.8879 26.2576 91.9199 27.7344C93.2159 29.5804 93.9999 30.8192 94.6719 32.0499C95.1839 33.0016 95.856 34.503 95.928 34.8886C96.008 35.2906 96.152 35.0937 96.216 34.503C96.312 33.5841 96.632 32.3863 97.272 30.4747C98.872 25.7654 99.088 24.8137 99.104 22.4426C99.112 20.6541 99 19.6942 98.584 18.1518C98.048 16.1417 97.136 14.1234 95.936 12.2939C95.5439 11.695 94.9839 11.375 94.8639 11.6786Z" fill="#007FFF"/>
<path d="M5.07132 13.4271C3.51099 15.4512 2.73478 17.7622 2.51301 21.0238C2.38628 22.9168 2.60806 25.7522 3.03576 27.6207C3.09912 27.9157 3.18625 28.3173 3.23377 28.5221C3.59811 30.2185 4.73074 33.3407 5.54655 34.8732C5.93465 35.6107 5.97426 35.6435 6.03762 35.3075C6.21979 34.4389 6.81383 32.89 7.3841 31.8001C8.05734 30.5217 8.6197 29.653 10.188 27.4568C12.4136 24.3427 13.4512 22.2284 13.7997 20.0814C14.0531 18.4751 14.069 18.3194 14.0135 18.2621C13.9739 18.2211 13.8314 18.3686 13.6809 18.5817C13.5383 18.8029 12.4532 19.9666 11.281 21.1877C8.81771 23.7363 8.15239 24.4984 7.48707 25.5228C6.996 26.2931 6.40988 27.4404 6.24355 27.9649C6.18811 28.137 6.11683 28.2927 6.09306 28.3091C6.06138 28.3255 6.04554 27.5142 6.06138 26.5062C6.08514 24.6787 5.99802 23.2856 5.71288 20.9664C5.27726 17.3852 5.25349 14.435 5.64952 12.9682C5.73664 12.6486 5.57823 12.7797 5.07132 13.4271Z" fill="#007FFF"/>
<path d="M76.9945 24.1238C76.9284 24.2221 76.0368 25.1311 75.0296 26.1466C72.9492 28.2349 71.2237 29.9874 66.5758 34.7128C62.192 39.1678 61.6306 39.7493 61.6058 39.823C61.581 39.8885 61.9525 41.338 63.4799 47.2754L63.9752 49.1999L60.1693 55.5058C58.0723 58.9781 56.1075 62.2375 55.7938 62.7453C55.2406 63.6543 55.2406 63.6625 55.5048 63.5315C55.6452 63.4578 56.7184 62.8599 57.8742 62.2048C61.0444 60.4195 63.4633 59.06 65.7915 57.7579L67.8802 56.5786L68.3672 54.8998C71.1577 45.1707 76.9862 24.8772 77.1844 24.2057C77.2752 23.9027 77.1761 23.8617 76.9945 24.1238Z" fill="#007FFF"/>
<path d="M23.5371 23.9536C23.5371 23.9865 24.433 27.2124 25.5226 31.1132C29.0092 43.6054 32.399 55.7274 32.5362 56.2376L32.6734 56.7314L35.9502 58.6242C39.8969 60.8955 41.6968 61.9324 43.1495 62.78C43.7468 63.1257 44.3279 63.4631 44.4409 63.5207C44.6346 63.6277 44.6346 63.6277 44.5135 63.4302C44.4409 63.3232 43.7145 62.0641 42.8913 60.6404C41.4143 58.081 39.8969 55.4476 37.516 51.3329L36.3054 49.2262L37.4676 44.5436C38.1052 41.9678 38.6217 39.7952 38.6056 39.7212C38.5894 39.5895 38.0406 39.0052 34.1504 34.9645C33.2142 33.9935 30.9785 31.6563 29.1868 29.78C24.4249 24.8012 23.5371 23.8877 23.5371 23.9536Z" fill="#007FFF"/>
<path d="M100.249 24.8761C100.225 24.9343 100.193 25.4167 100.169 25.949C100.041 28.5273 99.4009 30.9143 97.7852 34.7568C96.6895 37.3517 95.8016 39.8718 95.8016 40.3542C95.8016 40.4373 95.7696 40.4872 95.7297 40.4623C95.6897 40.4373 95.6337 40.1213 95.6017 39.772C95.4577 38.0004 94.9058 36.1208 94.026 34.3243C93.6981 33.6755 92.8822 32.2201 92.2103 31.0973C91.5385 29.9744 90.8026 28.6603 90.5787 28.1696C90.3467 27.6789 90.1388 27.2797 90.1148 27.2797C89.9068 27.2548 90.0668 30.4984 90.3627 32.245C90.5307 33.2347 91.0746 35.5136 91.2745 36.0625C91.6824 37.177 92.6343 40.5122 92.9942 42.0758C93.3621 43.6727 93.4421 44.4295 93.4421 46.4672C93.4421 47.4819 93.4581 48.3136 93.4821 48.3136C93.5541 48.3136 95.7217 45.9931 96.1616 45.4525C98.961 42.0009 100.753 38.1002 101.361 34.1663C101.76 31.5381 101.616 28.4524 100.961 25.8159C100.761 25.0258 100.625 24.7763 100.385 24.7763C100.321 24.7763 100.265 24.8262 100.249 24.8761Z" fill="#007FFF"/>
<path d="M0.57891 26.9351C0.457145 27.4444 0.327261 27.9948 0.278555 28.1508C0.132437 28.6684 -0.0217999 30.7138 0.00255325 31.8064C0.0350241 33.055 0.181143 34.5912 0.286673 34.8869C0.327261 35.0019 0.400321 35.3141 0.457145 35.5851C1.22021 39.5528 3.86658 44.1859 7.94979 48.7287L8.31508 49.1394L8.3232 47.5786C8.3232 45.9275 8.38814 45.1471 8.65603 43.5534C8.89144 42.1487 9.04568 41.5737 10.1903 37.721C11.2131 34.2872 11.481 32.8825 11.5459 30.7385C11.5946 29.227 11.5297 27.8222 11.4079 27.8222C11.3755 27.8222 11.2618 28.0358 11.1563 28.2905C10.8965 28.9394 10.2227 30.2538 9.39474 31.7242C7.89296 34.394 7.16237 35.963 6.72401 37.417C6.40742 38.4931 6.13954 39.8486 6.0746 40.6947C6.05024 41.1136 5.99342 41.4587 5.95283 41.4587C5.92036 41.4587 5.88789 41.3929 5.88789 41.3108C5.88789 40.7768 4.98682 37.9756 4.11823 35.8316C3.83411 35.1087 3.30646 33.8108 2.96552 32.9482C2.07257 30.7385 1.23644 28.044 1.00915 26.6475C0.952325 26.3025 0.879265 26.015 0.846795 26.015C0.814324 26.015 0.692558 26.434 0.57891 26.9351Z" fill="#007FFF"/>
<path d="M90.0435 39.3326C90.0104 39.4145 89.9358 39.6191 89.8695 39.7746C89.7618 40.0366 89.4469 41.1335 89.248 41.9439C89.0906 42.5987 88.8503 44.023 88.6928 45.3C88.5437 46.5197 88.4608 47.3301 88.1459 50.5798C87.6819 55.434 87.1764 58.2417 86.4886 59.7806C86.3726 60.0426 86.2897 60.2718 86.3063 60.2881C86.356 60.3373 92.6289 56.2034 93.615 55.4749C98.2968 52.0287 100.65 48.6807 101.611 44.0967C101.835 43.0162 102.092 40.2658 101.959 40.2658C101.926 40.2658 101.719 40.5768 101.504 40.9616C100.145 43.3272 98.3217 45.652 95.032 49.2292C92.8775 51.5703 91.966 52.5772 91.3528 53.3221C91.0545 53.6822 90.8307 53.9196 90.8556 53.8459C91.5019 52.086 91.6262 51.2592 91.6179 48.6562C91.6179 45.8321 91.3776 44.0558 90.5076 40.4295C90.2341 39.2835 90.1429 39.0625 90.0435 39.3326Z" fill="#007FFF"/>
<path d="M10.9046 39.8886C10.9046 40.0285 10.76 41.1226 10.5833 42.3154C10.2539 44.5366 10.0129 46.3793 9.85227 47.8107C9.80407 48.2714 9.77997 49.3655 9.80407 50.3609C9.8362 52.1296 9.94867 52.9275 10.3021 53.9476C10.3664 54.1451 10.4066 54.326 10.3905 54.3425C10.3744 54.3672 10.2218 54.1697 10.0611 53.9065C9.39438 52.8453 8.3822 51.6442 5.88389 48.9788C4.87171 47.893 3.7551 46.659 3.40967 46.2477C2.09224 44.6517 0.871197 42.7021 0.332975 41.3118C0.204444 40.9827 0.0678808 40.7113 0.027715 40.7113C-0.0445834 40.7113 0.0357482 43.1792 0.140179 43.9607C0.349041 45.5484 0.839064 47.2348 1.50582 48.6662C3.18475 52.2777 6.06865 55.1487 11.1938 58.3159C12.2622 58.9822 15.2104 60.7015 15.2746 60.7015C15.2987 60.7015 15.2104 60.463 15.0819 60.1668C14.7846 59.4758 14.2544 57.7565 14.0456 56.7528C13.7323 55.2803 13.5475 53.8407 13.1539 49.7604C12.7844 45.9186 12.5996 44.66 12.1016 42.6527C11.7401 41.1966 11.1697 39.6418 10.9849 39.6418C10.9448 39.6418 10.9046 39.757 10.9046 39.8886Z" fill="#007FFF"/>
<path d="M85.9665 49.5202C84.5152 51.2799 82.9238 54.4839 81.5055 58.5429C79.8233 63.3324 78.4628 66.221 76.8796 68.3128L76.3931 68.9602L76.7806 68.9104C78.2814 68.7278 81.1756 68.1882 82.2888 67.8894C82.6104 67.7981 83.0887 67.6653 83.3608 67.5906C86.6344 66.6941 90.2296 64.8597 92.4724 62.9423C95.1029 60.6845 96.8427 58.1362 98.0878 54.733C98.3352 54.0523 98.3435 53.8365 98.1043 54.1934C97.7992 54.6334 96.6613 55.7456 95.7295 56.501C93.8907 57.9868 91.351 59.5722 87.3188 61.7387C85.7521 62.577 83.1134 64.0877 82.5115 64.4945C82.1734 64.7103 81.8848 64.8929 81.8601 64.8929C81.8353 64.8929 82.0332 64.6605 82.2971 64.37C83.7236 62.8427 84.7626 60.2944 85.4635 56.6338C85.5542 56.1275 85.6861 55.48 85.7521 55.1812C85.8181 54.8824 85.9252 54.2847 85.9995 53.8531C86.1479 52.9898 86.5602 50.8566 86.7416 50.0763C86.8323 49.6862 86.8405 49.5451 86.7581 49.3708C86.5932 49.0222 86.354 49.0637 85.9665 49.5202Z" fill="#007FFF"/>
<path d="M14.8757 50.5959C15.0538 51.3165 15.3695 52.8888 15.7985 55.1653C16.438 58.531 17.1179 60.9058 17.9355 62.6174C18.4131 63.6082 19.0283 64.5909 19.4816 65.1068C19.6111 65.2542 19.7244 65.4016 19.7244 65.418C19.7244 65.4753 19.4087 65.2788 19.3602 65.1887C19.2954 65.0904 17.9922 64.2224 17.0532 63.6655C16.1709 63.1414 15.4504 62.7566 12.9654 61.4709C8.6185 59.2189 6.96719 58.1298 5.23492 56.3609C4.71686 55.8368 4.17452 55.2309 4.02881 55.0179C3.88311 54.7968 3.7455 54.6413 3.72121 54.6658C3.65645 54.7313 4.24737 56.4838 4.6521 57.4173C5.29158 58.8914 6.06867 60.1688 7.03194 61.3235C9.98651 64.8611 14.5519 67.2114 21.4405 68.7182C22.4847 68.9557 24.8241 69.3733 25.0588 69.3733C25.245 69.3733 25.245 69.3651 24.9698 69.0212C24.136 67.9893 23.2456 66.5235 22.5657 65.0904C22.339 64.5991 22.1528 64.1896 22.1528 64.1651C22.1528 64.1487 22.08 63.9767 21.999 63.7802C21.7805 63.297 21.3272 62.1588 20.8577 60.8977C18.9392 55.7386 18.1217 53.9779 16.7861 52.1108C16.2437 51.3411 14.9809 49.9653 14.8271 49.9653C14.7543 49.9653 14.7624 50.1209 14.8757 50.5959Z" fill="#007FFF"/>
<path d="M78.686 60.4059C77.4577 61.3282 75.7101 62.852 73.6822 64.7849C70.1127 68.1774 68.835 69.3002 68.1178 69.645C67.8869 69.7573 67.2275 69.9819 66.6422 70.1423C65.3067 70.5032 64.5895 70.7598 64.1279 71.0485C63.658 71.3373 63.4931 71.5217 63.6498 71.5779C65.9662 72.4039 68.9091 73.0455 72.0087 73.3984C72.5693 73.4626 73.8883 73.5027 75.471 73.5027C78.1502 73.4947 79.057 73.4225 80.9118 73.0455C84.7368 72.2756 87.7704 70.5272 89.4439 68.1292C89.8478 67.5518 90.4331 66.4771 90.4331 66.3167C90.4331 66.2686 90.2353 66.3969 90.0044 66.5894C89.1389 67.2952 87.9106 67.9287 86.3937 68.45C85.421 68.7789 83.1458 69.3403 82.4945 69.4205C82.2555 69.4445 81.7856 69.5167 81.4476 69.5729C80.2441 69.7974 77.2929 70.0621 73.608 70.2947C72.5363 70.3588 71.5883 70.415 71.5059 70.415C71.4152 70.415 71.6543 70.2866 72.0335 70.1343C73.2618 69.645 74.0944 69.0756 75.0671 68.0651C76.2542 66.822 77.4742 64.7448 78.6036 62.034C78.8591 61.4164 79.1147 60.7989 79.1724 60.6706C79.4032 60.1493 79.4939 59.9007 79.4609 59.8766C79.4444 59.8606 79.0982 60.0931 78.686 60.4059Z" fill="#007FFF"/>
<path d="M22.0888 60.723C22.0888 60.8426 23.5545 63.6418 24.2998 64.9417C25.3431 66.7599 26.1712 67.8445 27.3553 68.953C28.1006 69.6388 28.5146 69.9259 29.4835 70.4203C30.0465 70.7154 30.1128 70.7712 29.8727 70.7393C29.5083 70.6915 26.9413 70.5001 24.4902 70.3406C20.3913 70.0694 17.8491 69.7106 15.7955 69.1045C14.7605 68.8014 14.6528 68.7616 13.7088 68.3309C12.8807 67.9481 12.1355 67.5095 11.8043 67.2065C11.0093 66.4888 12.3342 68.5702 13.419 69.7425C15.0503 71.5049 17.6421 72.8606 20.4079 73.4029C22.1799 73.7458 22.7347 73.8176 24.1424 73.8894C25.4508 73.9611 28.9535 73.8734 29.1274 73.7697C29.1522 73.7538 29.7733 73.6661 30.502 73.5783C32.0836 73.3869 33.69 73.1078 35.4207 72.725C37.2838 72.3103 38.8158 71.8957 38.8158 71.8079C38.8158 71.6963 38.1285 71.2816 37.5737 71.0583C37.2838 70.9387 36.4475 70.6915 35.7188 70.5001C34.9818 70.3167 34.1703 70.0854 33.8971 69.9897C33.1187 69.7265 32.4479 69.1763 29.1771 66.1219C26.7177 63.8252 26.1464 63.3228 25.103 62.5173C23.9851 61.664 22.0888 60.5316 22.0888 60.723Z" fill="#007FFF"/>
<path d="M54.3744 71.4947C53.9153 71.5507 53.4153 71.6946 52.7185 71.9664C51.2757 72.5341 50.8166 72.638 50.2674 72.5181C50.0214 72.4621 49.8247 72.3822 49.8247 72.3422C49.8247 72.3022 49.8985 72.1423 49.9887 71.9984L50.1608 71.7346L49.8247 71.8705C49.546 71.9824 49.4968 72.0384 49.5378 72.1823C49.5788 72.3582 49.5706 72.3582 49.2345 72.2463C49.0377 72.1903 48.4967 71.9984 48.0212 71.8385L47.1605 71.5267L45.398 71.5347C43.8322 71.5347 43.5125 71.5587 42.5288 71.7505C40.7663 72.0863 39.2497 72.5741 36.6019 73.6614C35.7329 74.0132 34.4541 74.5329 33.7573 74.8208C30.6914 76.076 28.5354 76.5957 26.4204 76.6037C25.3793 76.6037 24.4612 76.4678 22.8298 76.084C21.1247 75.6843 19.8213 75.4924 19.8213 75.6443C19.8213 75.8442 22.5839 77.6351 24.0267 78.3627C25.3629 79.0343 26.4614 79.4341 27.691 79.7059C28.9945 79.9858 31.1259 80.0017 32.4949 79.7379C34.659 79.3141 36.0854 78.6425 39.2497 76.5637C42.2009 74.6129 43.5371 73.9413 45.152 73.5655C45.9472 73.3896 47.5622 73.2617 47.8245 73.3576C47.9556 73.4056 47.9474 73.4216 47.7671 73.5175C47.1687 73.8293 43.6765 75.9081 42.7829 76.4758C40.8975 77.6831 39.4793 78.8584 38.4873 80.0257C37.5446 81.1371 37.3069 81.5608 37.6348 81.5608C37.8315 81.5608 38.348 82.0565 38.6431 82.5203C38.8071 82.7841 38.9628 83 38.9874 83C39.012 83 39.8646 82.1845 40.8811 81.1851C44.7995 77.3313 46.6194 75.9321 49.5542 74.5089L50.8904 73.8613L51.2347 74.0132C51.8249 74.2691 53.4153 75.2285 54.3662 75.9081C55.9238 77.0035 56.9895 77.907 60.2275 80.8413C61.367 81.8727 62.3343 82.7362 62.3753 82.7521C62.4245 82.7681 62.7852 82.4723 63.1705 82.1045C63.564 81.7287 63.9575 81.3849 64.0476 81.345C64.269 81.225 64.1624 81.0331 63.4164 80.2016C62.2933 78.9544 60.8915 77.875 58.1043 76.124C55.4647 74.469 53.8498 73.3736 53.7104 73.1577C53.6448 73.0458 55.3253 73.0778 56.3008 73.2057C57.9076 73.4136 58.4404 73.7014 61.1785 75.8442C63.4328 77.6111 64.0722 77.9789 65.8347 78.5706C67.6054 79.1622 69.1138 79.3541 71.5895 79.2982C73.1716 79.2582 73.6389 79.2182 74.4914 79.0503C76.9343 78.5626 78.8362 77.6991 80.1478 76.4838C80.6561 76.0201 81.4103 75.0286 81.3447 74.9247C81.3283 74.8927 81.025 75.0126 80.6725 75.1805C79.9265 75.5323 78.4919 76.0121 77.6639 76.172C77.3442 76.2359 76.5491 76.3079 75.8932 76.3319C73.393 76.4358 71.2206 75.9321 66.9168 74.2611C61.9326 72.3262 61.0473 72.0464 58.7601 71.6386C57.7354 71.4547 55.3499 71.3748 54.3744 71.4947Z" fill="#007FFF"/>
</svg>
